<?xml version="1.0" standalone="no"?>
<!DOCTYPE svg PUBLIC "-//W3C//DTD SVG 20010904//EN"
 "http://www.w3.org/TR/2001/REC-SVG-20010904/DTD/svg10.dtd">
<svg version="1.0" xmlns="http://www.w3.org/2000/svg"
 width="700.000000pt" height="700.000000pt" viewBox="0 0 700.000000 700.000000"
 preserveAspectRatio="xMidYMid meet">
<metadata>
Created by potrace 1.11, written by Peter Selinger 2001-2013
</metadata>
<g transform="translate(0.000000,700.000000) scale(0.100000,-0.100000)"
fill="#000000" stroke="none">
<path d="M3098 6995 c-2 -1 -82 -6 -178 -10 -96 -3 -195 -8 -220 -10 -25 -2
-85 -6 -135 -10 -49 -4 -103 -8 -120 -9 -16 -2 -64 -6 -105 -10 -41 -4 -91 -9
-110 -11 -19 -3 -62 -7 -95 -10 -65 -6 -135 -14 -175 -21 -14 -2 -54 -6 -90
-10 -36 -3 -67 -8 -70 -9 -3 -2 -33 -6 -65 -10 -33 -3 -67 -8 -75 -10 -8 -2
-35 -7 -60 -10 -25 -3 -83 -17 -130 -31 -433 -127 -817 -414 -1064 -796 -123
-190 -233 -452 -260 -623 -10 -64 -17 -111 -20 -140 -2 -16 -7 -50 -10 -75 -7
-51 -13 -94 -21 -160 -4 -25 -8 -56 -10 -70 -2 -14 -7 -59 -10 -100 -4 -41 -8
-77 -10 -80 -2 -3 -6 -50 -10 -105 -4 -55 -9 -107 -10 -116 -2 -9 -6 -65 -10
-125 -4 -60 -9 -127 -11 -149 -25 -295 -25 -1410 1 -1565 2 -14 6 -74 10 -135
4 -60 8 -126 10 -145 2 -19 6 -73 10 -119 3 -47 8 -87 9 -90 2 -3 7 -42 11
-85 4 -43 8 -86 10 -95 1 -9 6 -47 10 -84 3 -37 8 -76 9 -85 5 -25 16 -102 21
-147 3 -22 7 -51 10 -65 2 -14 7 -45 10 -70 13 -102 80 -289 162 -455 38 -76
163 -279 183 -295 3 -3 24 -27 45 -55 77 -96 253 -263 345 -325 19 -13 37 -27
40 -30 12 -16 213 -129 297 -168 162 -75 301 -116 463 -138 25 -3 54 -8 65
-10 36 -7 277 -37 395 -48 36 -4 81 -9 100 -11 19 -2 67 -7 105 -10 39 -3 92
-8 120 -11 89 -9 240 -19 490 -31 292 -15 1100 -8 1331 12 45 4 113 9 264 20
75 6 244 22 310 30 19 2 64 7 100 11 36 3 67 7 70 9 3 2 37 6 75 10 39 3 79 8
90 10 11 2 70 11 130 20 220 32 406 98 610 215 73 42 203 126 215 140 3 3 34
29 70 59 269 225 478 533 588 871 31 94 50 186 66 315 7 51 15 112 21 150 3
17 7 53 10 80 3 28 7 64 10 80 2 17 7 62 10 100 4 39 9 78 11 88 1 9 6 56 9
105 4 48 9 95 10 104 2 9 7 68 10 130 4 62 9 129 10 148 26 265 26 1230 0
1575 -2 28 -7 91 -10 140 -3 50 -8 101 -10 115 -2 14 -6 61 -10 105 -3 44 -10
116 -15 160 -5 44 -12 107 -15 140 -4 33 -8 71 -10 85 -2 14 -9 66 -16 115
-30 240 -46 318 -87 442 -46 137 -84 220 -160 353 -47 80 -72 120 -129 195
-128 170 -338 360 -528 479 -166 103 -439 211 -585 231 -46 6 -155 23 -200 30
-14 2 -50 7 -80 10 -30 3 -66 8 -80 10 -14 2 -47 6 -75 9 -27 3 -90 10 -140
16 -49 5 -121 12 -160 15 -38 3 -86 8 -105 10 -19 2 -75 6 -125 10 -49 3 -119
8 -155 11 -36 3 -99 8 -140 10 -93 5 -1037 13 -1042 9z"/>
</g>
</svg>
