<?xml version="1.0" encoding="UTF-8" standalone="no"?><!DOCTYPE svg PUBLIC "-//W3C//DTD SVG 1.1//EN" "http://www.w3.org/Graphics/SVG/1.1/DTD/svg11.dtd"><svg width="100%" height="100%" viewBox="0 0 48 48" version="1.1" xmlns="http://www.w3.org/2000/svg" xmlns:xlink="http://www.w3.org/1999/xlink" xml:space="preserve" xmlns:serif="http://www.serif.com/" style="fill-rule:evenodd;clip-rule:evenodd;stroke-linejoin:round;stroke-miterlimit:1.41421;"><g id="Group"><path id="Shape" d="M46.958,10.652c-1.181,-4.733 -4.876,-8.428 -9.609,-9.609c-8.845,-1.391 -17.852,-1.391 -26.697,0c-4.733,1.181 -8.428,4.876 -9.609,9.609c-1.391,8.844 -1.391,17.852 0,26.696c1.181,4.733 4.876,8.428 9.609,9.609c8.845,1.391 17.852,1.391 26.697,0c4.733,-1.181 8.428,-4.876 9.609,-9.609c1.389,-8.844 1.389,-17.852 0,-26.696Z" style="fill:#2d89ef;fill-rule:nonzero;"/><path d="M10.769,33.515c0.451,0.495 1.165,0.669 1.8,0.443l30.106,-10.68c0.857,-0.304 1.3,-1.229 0.988,-2.064c-1.537,-4.115 -6.269,-6.155 -10.427,-4.487l-5.113,2.005l-6.94,-4.517c-0.438,-0.284 -0.988,-0.349 -1.483,-0.174l-4.755,1.688c-0.51,0.18 -0.896,0.594 -1.033,1.105c-0.138,0.512 -0.009,1.056 0.345,1.457l3.92,4.45l-4.657,1.909l-1.548,-1.697c-0.45,-0.493 -1.164,-0.669 -1.8,-0.443l-4.847,1.72c-0.515,0.182 -0.903,0.601 -1.037,1.119c-0.134,0.517 0.003,1.065 0.367,1.464l6.114,6.702Zm-0.521,-7.604l1.588,1.74c0.47,0.515 1.224,0.682 1.875,0.415l7.837,-3.214c0.487,-0.199 0.847,-0.613 0.968,-1.114c0.121,-0.501 -0.011,-1.029 -0.355,-1.419l-3.841,-4.36l1.724,-0.612l6.97,4.535c0.453,0.295 1.027,0.353 1.533,0.155l5.927,-2.324c0.005,-0.002 0.01,-0.003 0.014,-0.005c1.926,-0.775 4.001,-0.169 5.219,1.195l-27.214,9.655l-3.752,-4.113l1.507,-0.534Z" style="fill:#fff;fill-rule:nonzero;"/></g></svg>